ffmpeg started on 2015-09-13 at 01:06:36
Report written to "testpackage//logs/ffmpeg_20150913-010636_dpxderiver_0.2.log"
Command line:
ffmpeg -v warning -stats -start_number 000001 -r 90 -y -i "testpackage//images/image_%06d.dpx" -i testpackage//audio/tone.wav -c:v dnxhd -pix_fmt yuv422p10le -s 1920x1080 -b:v 175M -r ntsc-film -c:a copy testpackage//dnxhd/dnxhd.mov
ffmpeg version 2.7.2 Copyright (c) 2000-2015 the FFmpeg developers
  built with Apple LLVM version 6.1.0 (clang-602.0.53) (based on LLVM 3.6.0svn)
  configuration: --prefix=/usr/local/Cellar/ffmpeg/2.7.2 --enable-shared --enable-pthreads --enable-gpl --enable-version3 --enable-hardcoded-tables --enable-avresample --enable-opencl --cc=clang --host-cflags= --host-ldflags= --enable-libx264 --enable-libmp3lame --enable-libvo-aacenc --enable-libxvid --enable-libfreetype --enable-libfaac --enable-libass --enable-ffplay --enable-libopenjpeg --disable-decoder=jpeg2000 --extra-cflags= --enable-nonfree --enable-vda
  libavutil      54. 27.100 / 54. 27.100
  libavcodec     56. 41.100 / 56. 41.100
  libavformat    56. 36.100 / 56. 36.100
  libavdevice    56.  4.100 / 56.  4.100
  libavfilter     5. 16.101 /  5. 16.101
  libavresample   2.  1.  0 /  2.  1.  0
  libswscale      3.  1.101 /  3.  1.101
  libswresample   1.  2.100 /  1.  2.100
  libpostproc    53.  3.100 / 53.  3.100
Splitting the commandline.
Reading option '-v' ... matched as option 'v' (set logging level) with argument 'warning'.
Reading option '-stats' ... matched as option 'stats' (print progress report during encoding) with argument '1'.
Reading option '-start_number' ... matched as AVOption 'start_number' with argument '000001'.
Reading option '-r' ... matched as option 'r' (set frame rate (Hz value, fraction or abbreviation)) with argument '90'.
Reading option '-y' ... matched as option 'y' (overwrite output files) with argument '1'.
Reading option '-i' ... matched as input file with argument 'testpackage//images/image_%06d.dpx'.
Reading option '-i' ... matched as input file with argument 'testpackage//audio/tone.wav'.
Reading option '-c:v' ... matched as option 'c' (codec name) with argument 'dnxhd'.
Reading option '-pix_fmt' ... matched as option 'pix_fmt' (set pixel format) with argument 'yuv422p10le'.
Reading option '-s' ... matched as option 's' (set frame size (WxH or abbreviation)) with argument '1920x1080'.
Reading option '-b:v' ... matched as option 'b' (video bitrate (please use -b:v)) with argument '175M'.
Reading option '-r' ... matched as option 'r' (set frame rate (Hz value, fraction or abbreviation)) with argument 'ntsc-film'.
Reading option '-c:a' ... matched as option 'c' (codec name) with argument 'copy'.
Reading option 'testpackage//dnxhd/dnxhd.mov' ... matched as output file.
Finished splitting the commandline.
Parsing a group of options: global .
Applying option v (set logging level) with argument warning.
Applying option stats (print progress report during encoding) with argument 1.
Applying option y (overwrite output files) with argument 1.
Successfully parsed a group of options.
Parsing a group of options: input file testpackage//images/image_%06d.dpx.
Applying option r (set frame rate (Hz value, fraction or abbreviation)) with argument 90.
Successfully parsed a group of options.
Opening an input file: testpackage//images/image_%06d.dpx.
[AVIOContext @ 0x7fc6b3f19720] Statistics: 1230464 bytes read, 0 seeks
[AVIOContext @ 0x7fc6b3f19800] Statistics: 1230464 bytes read, 0 seeks
[AVIOContext @ 0x7fc6b3c00540] Statistics: 1230464 bytes read, 0 seeks
[AVIOContext @ 0x7fc6b3e05f40] Statistics: 1230464 bytes read, 0 seeks
[AVIOContext @ 0x7fc6b3e05f40] Statistics: 1230464 bytes read, 0 seeks
[image2 @ 0x7fc6b582bc00] Probe buffer size limit of 5000000 bytes reached
Input #0, image2, from 'testpackage//images/image_%06d.dpx':
  Duration: 00:00:01.00, start: 0.000000, bitrate: N/A
    Stream #0:0, 5, 1/25: Video: dpx, rgba, 640x480 [SAR 1:1 DAR 4:3], 25 fps, 25 tbr, 25 tbn, 25 tbc
Successfully opened the file.
Parsing a group of options: input file testpackage//audio/tone.wav.
Successfully parsed a group of options.
Opening an input file: testpackage//audio/tone.wav.
[wav @ 0x7fc6b500a200] Format wav probed with size=2048 and score=99
[wav @ 0x7fc6b500a200] Before avformat_find_stream_info() pos: 78 bytes read:32768 seeks:0
[wav @ 0x7fc6b500a200] parser not found for codec pcm_s16le, packets or times may be invalid.
[wav @ 0x7fc6b500a200] probing stream 0 pp:32
[wav @ 0x7fc6b500a200] probing stream 0 pp:31
[wav @ 0x7fc6b500a200] probing stream 0 pp:30
[wav @ 0x7fc6b500a200] probing stream 0 pp:29
[wav @ 0x7fc6b500a200] probing stream 0 pp:28
[wav @ 0x7fc6b500a200] probing stream 0 pp:27
[wav @ 0x7fc6b500a200] probing stream 0 pp:26
[wav @ 0x7fc6b500a200] probing stream 0 pp:25
[wav @ 0x7fc6b500a200] probing stream 0 pp:24
[wav @ 0x7fc6b500a200] probing stream 0 pp:23
[wav @ 0x7fc6b500a200] probing stream 0 pp:22
[wav @ 0x7fc6b500a200] probing stream 0 pp:21
[wav @ 0x7fc6b500a200] probing stream 0 pp:20
[wav @ 0x7fc6b500a200] probing stream 0 pp:19
[wav @ 0x7fc6b500a200] probing stream 0 pp:18
[wav @ 0x7fc6b500a200] probing stream 0 pp:17
[wav @ 0x7fc6b500a200] probing stream 0 pp:16
[wav @ 0x7fc6b500a200] probing stream 0 pp:15
[wav @ 0x7fc6b500a200] probing stream 0 pp:14
[wav @ 0x7fc6b500a200] probing stream 0 pp:13
[wav @ 0x7fc6b500a200] probing stream 0 pp:12
[wav @ 0x7fc6b500a200] probing stream 0 pp:11
[wav @ 0x7fc6b500a200] probing stream 0 pp:10
[wav @ 0x7fc6b500a200] probing stream 0 pp:9
[wav @ 0x7fc6b500a200] probing stream 0 pp:8
[wav @ 0x7fc6b500a200] probing stream 0 pp:7
[wav @ 0x7fc6b500a200] probing stream 0 pp:6
[wav @ 0x7fc6b500a200] probing stream 0 pp:5
[wav @ 0x7fc6b500a200] probing stream 0 pp:4
[wav @ 0x7fc6b500a200] probing stream 0 pp:3
[wav @ 0x7fc6b500a200] probing stream 0 pp:2
[wav @ 0x7fc6b500a200] probing stream 0 pp:1
[wav @ 0x7fc6b500a200] probed stream 0
[wav @ 0x7fc6b500a200] parser not found for codec pcm_s16le, packets or times may be invalid.
[wav @ 0x7fc6b500a200] After avformat_find_stream_info() pos: 176478 bytes read:176478 seeks:0 frames:44
Guessed Channel Layout for  Input Stream #1.0 : stereo
Input #1, wav, from 'testpackage//audio/tone.wav':
  Metadata:
    encoder         : Lavf56.36.100
  Duration: 00:00:01.00, bitrate: 1411 kb/s
    Stream #1:0, 44, 1/44100: Audio: pcm_s16le ([1][0][0][0] / 0x0001), 44100 Hz, 2 channels, s16, 1411 kb/s
Successfully opened the file.
Parsing a group of options: output file testpackage//dnxhd/dnxhd.mov.
Applying option c:v (codec name) with argument dnxhd.
Applying option pix_fmt (set pixel format) with argument yuv422p10le.
Applying option s (set frame size (WxH or abbreviation)) with argument 1920x1080.
Applying option b:v (video bitrate (please use -b:v)) with argument 175M.
Applying option r (set frame rate (Hz value, fraction or abbreviation)) with argument ntsc-film.
Applying option c:a (codec name) with argument copy.
Successfully parsed a group of options.
Opening an output file: testpackage//dnxhd/dnxhd.mov.
Successfully opened the file.
detected 4 logical cores
[graph 0 input from stream 0:0 @ 0x7fc6b3d054c0] Setting 'video_size' to value '640x480'
[graph 0 input from stream 0:0 @ 0x7fc6b3d054c0] Setting 'pix_fmt' to value '28'
[graph 0 input from stream 0:0 @ 0x7fc6b3d054c0] Setting 'time_base' to value '1/90'
[graph 0 input from stream 0:0 @ 0x7fc6b3d054c0] Setting 'pixel_aspect' to value '1/1'
[graph 0 input from stream 0:0 @ 0x7fc6b3d054c0] Setting 'sws_param' to value 'flags=2'
[graph 0 input from stream 0:0 @ 0x7fc6b3d054c0] Setting 'frame_rate' to value '90/1'
[graph 0 input from stream 0:0 @ 0x7fc6b3d054c0] w:640 h:480 pixfmt:rgba tb:1/90 fr:90/1 sar:1/1 sws_param:flags=2
[force CFR for input from stream 0:0 @ 0x7fc6b3d05f60] Setting 'expr' to value 'N'
[scaler for output stream 0:0 @ 0x7fc6b3d066a0] Setting 'w' to value '1920'
[scaler for output stream 0:0 @ 0x7fc6b3d066a0] Setting 'h' to value '1080'
[scaler for output stream 0:0 @ 0x7fc6b3d066a0] Setting 'flags' to value '0x4'
[scaler for output stream 0:0 @ 0x7fc6b3d066a0] w:1920 h:1080 flags:'0x4' interl:0
[format @ 0x7fc6b3d06920] compat: called with args=[yuv422p10le]
[format @ 0x7fc6b3d06920] Setting 'pix_fmts' to value 'yuv422p10le'
[AVFilterGraph @ 0x7fc6b3e07340] query_formats: 6 queried, 5 merged, 0 already done, 0 delayed
[graph 0 input from stream 0:0 @ 0x7fc6b3d054c0] TB:0.011111 FRAME_RATE:90.000000 SAMPLE_RATE:nan
[scaler for output stream 0:0 @ 0x7fc6b3d066a0] w:640 h:480 fmt:rgba sar:1/1 -> w:1920 h:1080 fmt:yuv422p10le sar:3/4 flags:0x4
[dnxhd @ 0x7fc6b5005800] cid 1235
[mov @ 0x7fc6b5009c00] Codec for stream 1 does not use global headers but container format requires global headers
Output #0, mov, to 'testpackage//dnxhd/dnxhd.mov':
  Metadata:
    encoder         : Lavf56.36.100
    Stream #0:0, 0, 1/24000: Video: dnxhd (AVdn / 0x6E645641), yuv422p10le, 1920x1080 [SAR 3:4 DAR 4:3], q=2-1024, 175000 kb/s, 23.98 fps, 24k tbn, 23.98 tbc
    Metadata:
      encoder         : Lavc56.41.100 dnxhd
    Stream #0:1, 0, 1/44100: Audio: pcm_s16le (sowt / 0x74776F73), 44100 Hz, stereo, 1411 kb/s
Stream mapping:
  Stream #0:0 -> #0:0 (dpx (native) -> dnxhd (native))
  Stream #1:0 -> #0:1 (copy)
Press [q] to stop, [?] for help
Cliping frame in rate conversion by 0.000008
[AVIOContext @ 0x7fc6b3d06fc0] Statistics: 1230464 bytes read, 0 seeks
[AVIOContext @ 0x7fc6b3e094a0] Statistics: 1230464 bytes read, 0 seeks
[AVIOContext @ 0x7fc6b3e095e0] Statistics: 1230464 bytes read, 0 seeks
[AVIOContext @ 0x7fc6b3c01f20] Statistics: 1230464 bytes read, 0 seeks
[AVIOContext @ 0x7fc6b3e09540] Statistics: 1230464 bytes read, 0 seeks
[image2 @ 0x7fc6b582bc00] Thread message queue blocking; consider raising the thread_queue_size option (current value: 8)
[AVIOContext @ 0x7fc6b3e09540] Statistics: 1230464 bytes read, 0 seeks
Past duration 0.733604 too large
[AVIOContext @ 0x7fc6b3e094c0] Statistics: 1230464 bytes read, 0 seeks
[AVIOContext @ 0x7fc6b3e094c0] Statistics: 1230464 bytes read, 0 seeks
*** dropping frame 3 from stream 0 at ts 1
[AVIOContext @ 0x7fc6b3d07840] Statistics: 1230464 bytes read, 0 seeks
[AVIOContext @ 0x7fc6b3e09540] Statistics: 1230464 bytes read, 0 seeks
*** dropping frame 4 from stream 0 at ts 1
[AVIOContext @ 0x7fc6b3c02300] Statistics: 1230464 bytes read, 0 seeks
*** dropping frame 4 from stream 0 at ts 2
[AVIOContext @ 0x7fc6b3f189c0] Statistics: 1230464 bytes read, 0 seeks
*** dropping frame 4 from stream 0 at ts 2
*** dropping frame 5 from stream 0 at ts 2
*** dropping frame 5 from stream 0 at ts 3
*** dropping frame 6 from stream 0 at ts 3
*** dropping frame 6 from stream 0 at ts 3
*** dropping frame 6 from stream 0 at ts 4
[AVIOContext @ 0x7fc6b3e09540] Statistics: 1230464 bytes read, 0 seeks
[AVIOContext @ 0x7fc6b3d071e0] Statistics: 1230464 bytes read, 0 seeks
*** dropping frame 7 from stream 0 at ts 4
[AVIOContext @ 0x7fc6b3d07260] Statistics: 1230464 bytes read, 0 seeks
*** dropping frame 7 from stream 0 at ts 5
*** dropping frame 7 from stream 0 at ts 5
[AVIOContext @ 0x7fc6b3d06f40] Statistics: 1230464 bytes read, 0 seeks
[AVIOContext @ 0x7fc6b3c00580] Statistics: 1230464 bytes read, 0 seeks
*** dropping frame 8 from stream 0 at ts 5
[AVIOContext @ 0x7fc6b3e06c60] Statistics: 1230464 bytes read, 0 seeks
[AVIOContext @ 0x7fc6b3d06fc0] Statistics: 1230464 bytes read, 0 seeks
[AVIOContext @ 0x7fc6b3d070a0] Statistics: 1230464 bytes read, 0 seeks
*** dropping frame 8 from stream 0 at ts 6
*** dropping frame 8 from stream 0 at ts 6
[output stream 0:0 @ 0x7fc6b3d06560] EOF on sink link output stream 0:0:default.
*** dropping frame 9 from stream 0 at ts 6
No more output streams to write to, finishing.
video:8064kB audio:172kB subtitle:0kB other streams:0kB global headers:0kB muxing overhead: 0.018651%
Input file #0 (testpackage//images/image_%06d.dpx):
  Input stream #0:0 (video): 25 packets read (30761600 bytes); 25 frames decoded; 
  Total: 25 packets (30761600 bytes) demuxed
Input file #1 (testpackage//audio/tone.wav):
  Input stream #1:0 (audio): 44 packets read (176400 bytes); 
  Total: 44 packets (176400 bytes) demuxed
Output file #0 (testpackage//dnxhd/dnxhd.mov):
  Output stream #0:0 (video): 9 frames encoded; 9 packets muxed (8257536 bytes); 
  Output stream #0:1 (audio): 44 packets muxed (176400 bytes); 
  Total: 53 packets (8433936 bytes) muxed
25 frames successfully decoded, 0 decoding errors
[AVIOContext @ 0x7fc6b3e077c0] Statistics: 60 seeks, 343 writeouts
[AVIOContext @ 0x7fc6b3e06240] Statistics: 176478 bytes read, 0 seeks
